<svg width="186" height="32" viewBox="0 0 186 32" fill="none" xmlns="http://www.w3.org/2000/svg">
<path fill-rule="evenodd" clip-rule="evenodd" d="M31.1209 7.482C28.3279 19.146 19.1479 28.326 7.48386 31.121C5.99899 30.5156 4.65003 29.6196 3.51614 28.4857C2.38226 27.3518 1.4863 26.0029 0.880859 24.518C3.67486 12.854 12.8549 3.674 24.5189 0.878998C26.0037 1.48444 27.3527 2.3804 28.4866 3.51428C29.6205 4.64817 30.5164 5.99713 31.1219 7.482H31.1209Z" fill="#312ECA"/>
<path fill-rule="evenodd" clip-rule="evenodd" d="M28.874 3.922L3.96397 28.912C2.61766 27.6985 1.56304 26.1964 0.878967 24.518C3.67397 12.854 12.854 3.674 24.518 0.878998C26.1787 1.55582 27.667 2.59554 28.874 3.922V3.922Z" fill="url(#paint0_linear)"/>
<g opacity="0.88">
<path opacity="0.88" fill-rule="evenodd" clip-rule="evenodd" d="M31.12 24.5189C30.5147 26.0037 29.6188 27.3526 28.4851 28.4865C27.3514 29.6203 26.0027 30.5163 24.518 31.1219C12.854 28.3269 3.67397 19.1469 0.878967 7.48289C1.48452 5.99821 2.38053 4.64944 3.51441 3.51573C4.64829 2.38202 5.9972 1.48622 7.48197 0.88089C19.146 3.67589 28.326 12.8559 31.121 24.5199L31.12 24.5189Z" fill="url(#paint1_linear)"/>
<path opacity="0.88" fill-rule="evenodd" clip-rule="evenodd" d="M24.518 31.12C12.854 28.327 3.67397 19.147 0.878967 7.48301C1.47405 6.02187 2.35107 4.69224 3.45997 3.57001L28.47 28.5C27.34 29.6271 25.9969 30.5177 24.519 31.12H24.518Z" fill="url(#paint2_linear)"/>
</g>
<path d="M51.8047 16.7695H44.9375V24H41.9727V6.9375H52.8125V9.32812H44.9375V14.4023H51.8047V16.7695ZM62.3164 22.7578C61.4805 23.7422 60.293 24.2344 58.7539 24.2344C57.3789 24.2344 56.3359 23.832 55.625 23.0273C54.9219 22.2227 54.5703 21.0586 54.5703 19.5352V11.3203H57.418V19.5C57.418 21.1094 58.0859 21.9141 59.4219 21.9141C60.8047 21.9141 61.7383 21.418 62.2227 20.4258V11.3203H65.0703V24H62.3867L62.3164 22.7578ZM70.6133 11.3203L70.6953 12.7852C71.6328 11.6523 72.8633 11.0859 74.3867 11.0859C77.0273 11.0859 78.3711 12.5977 78.418 15.6211V24H75.5703V15.7852C75.5703 14.9805 75.3945 14.3867 75.043 14.0039C74.6992 13.6133 74.1328 13.418 73.3438 13.418C72.1953 13.418 71.3398 13.9375 70.7773 14.9766V24H67.9297V11.3203H70.6133ZM80.7969 17.5664C80.7969 15.6133 81.25 14.0469 82.1562 12.8672C83.0625 11.6797 84.2773 11.0859 85.8008 11.0859C87.1445 11.0859 88.2305 11.5547 89.0586 12.4922V6H91.9062V24H89.3281L89.1875 22.6875C88.3359 23.7188 87.1992 24.2344 85.7773 24.2344C84.293 24.2344 83.0898 23.6367 82.168 22.4414C81.2539 21.2461 80.7969 19.6211 80.7969 17.5664ZM83.6445 17.8125C83.6445 19.1016 83.8906 20.1094 84.3828 20.8359C84.8828 21.5547 85.5898 21.9141 86.5039 21.9141C87.668 21.9141 88.5195 21.3945 89.0586 20.3555V14.9414C88.5352 13.9258 87.6914 13.418 86.5273 13.418C85.6055 13.418 84.8945 13.7852 84.3945 14.5195C83.8945 15.2461 83.6445 16.3438 83.6445 17.8125ZM112.754 9.32812H107.434V24H104.492V9.32812H99.2188V6.9375H112.754V9.32812ZM117.535 12.7031C118.465 11.625 119.641 11.0859 121.062 11.0859C123.766 11.0859 125.137 12.6289 125.176 15.7148V24H122.328V15.8203C122.328 14.9453 122.137 14.3281 121.754 13.9688C121.379 13.6016 120.824 13.418 120.09 13.418C118.949 13.418 118.098 13.9258 117.535 14.9414V24H114.688V6H117.535V12.7031ZM133.648 24.2344C131.844 24.2344 130.379 23.668 129.254 22.5352C128.137 21.3945 127.578 19.8789 127.578 17.9883V17.6367C127.578 16.3711 127.82 15.2422 128.305 14.25C128.797 13.25 129.484 12.4727 130.367 11.918C131.25 11.3633 132.234 11.0859 133.32 11.0859C135.047 11.0859 136.379 11.6367 137.316 12.7383C138.262 13.8398 138.734 15.3984 138.734 17.4141V18.5625H130.449C130.535 19.6094 130.883 20.4375 131.492 21.0469C132.109 21.6562 132.883 21.9609 133.812 21.9609C135.117 21.9609 136.18 21.4336 137 20.3789L138.535 21.8438C138.027 22.6016 137.348 23.1914 136.496 23.6133C135.652 24.0273 134.703 24.2344 133.648 24.2344ZM133.309 13.3711C132.527 13.3711 131.895 13.6445 131.41 14.1914C130.934 14.7383 130.629 15.5 130.496 16.4766H135.922V16.2656C135.859 15.3125 135.605 14.5938 135.16 14.1094C134.715 13.6172 134.098 13.3711 133.309 13.3711ZM147.207 24V6.9375H152.246C153.754 6.9375 155.09 7.27344 156.254 7.94531C157.426 8.61719 158.332 9.57031 158.973 10.8047C159.613 12.0391 159.934 13.4531 159.934 15.0469V15.9023C159.934 17.5195 159.609 18.9414 158.961 20.168C158.32 21.3945 157.402 22.3398 156.207 23.0039C155.02 23.668 153.656 24 152.117 24H147.207ZM150.172 9.32812V21.6328H152.105C153.66 21.6328 154.852 21.1484 155.68 20.1797C156.516 19.2031 156.941 17.8047 156.957 15.9844V15.0352C156.957 13.1836 156.555 11.7695 155.75 10.793C154.945 9.81641 153.777 9.32812 152.246 9.32812H150.172ZM168.195 24.2344C166.391 24.2344 164.926 23.668 163.801 22.5352C162.684 21.3945 162.125 19.8789 162.125 17.9883V17.6367C162.125 16.3711 162.367 15.2422 162.852 14.25C163.344 13.25 164.031 12.4727 164.914 11.918C165.797 11.3633 166.781 11.0859 167.867 11.0859C169.594 11.0859 170.926 11.6367 171.863 12.7383C172.809 13.8398 173.281 15.3984 173.281 17.4141V18.5625H164.996C165.082 19.6094 165.43 20.4375 166.039 21.0469C166.656 21.6562 167.43 21.9609 168.359 21.9609C169.664 21.9609 170.727 21.4336 171.547 20.3789L173.082 21.8438C172.574 22.6016 171.895 23.1914 171.043 23.6133C170.199 24.0273 169.25 24.2344 168.195 24.2344ZM167.855 13.3711C167.074 13.3711 166.441 13.6445 165.957 14.1914C165.48 14.7383 165.176 15.5 165.043 16.4766H170.469V16.2656C170.406 15.3125 170.152 14.5938 169.707 14.1094C169.262 13.6172 168.645 13.3711 167.855 13.3711ZM179.809 20.3906L182.492 11.3203H185.434L181.039 24H178.566L174.137 11.3203H177.09L179.809 20.3906Z" fill="#11103E"/>
<defs>
<linearGradient id="paint0_linear" x1="32.982" y1="11.954" x2="-13.9578" y2="11.954" gradientUnits="userSpaceOnUse">
<stop stop-color="#8D92FA"/>
<stop offset="1" stop-color="#8D92FA" stop-opacity="0"/>
</linearGradient>
<linearGradient id="paint1_linear" x1="29.0192" y1="6.85863" x2="5.42621" y2="26.8179" gradientUnits="userSpaceOnUse">
<stop stop-color="#FF3058"/>
<stop offset="1" stop-color="#FF6381"/>
</linearGradient>
<linearGradient id="paint2_linear" x1="9.90564" y1="-1.98848" x2="9.90564" y2="44.5498" gradientUnits="userSpaceOnUse">
<stop stop-color="#FF97AA"/>
<stop offset="1" stop-color="#FF97AA" stop-opacity="0"/>
</linearGradient>
</defs>
</svg>
